<?xml version="1.0" encoding="UTF-8"?>
<svg version="1.1" xmlns="http://www.w3.org/2000/svg" width="131" height="40">
<path d="M0 0 C6.1563653 -0.09908722 12.3122635 -0.17157253 18.46923828 -0.21972656 C20.56241953 -0.23980659 22.65554492 -0.2670764 24.74853516 -0.30175781 C27.76218469 -0.35043434 30.77509073 -0.37300512 33.7890625 -0.390625 C34.72054108 -0.41127014 35.65201965 -0.43191528 36.61172485 -0.45318604 C43.51267128 -0.45555405 46.81031873 0.92030774 51.8125 5.75 C54.38488157 10.62398614 54.4105267 14.63157767 52.875 19.75 C50.33646206 24.15013243 47.83967775 26.16378284 43.25 28.25 C39.04817147 29.21965274 35.3087645 29.13056862 31 29 C31 32.63 31 36.26 31 40 C27.7 40 24.4 40 21 40 C21 29.77 21 19.54 21 9 C28.08333333 13.25 28.08333333 13.25 31 16 C31 17.32 31 18.64 31 20 C36.445 19.01 36.445 19.01 42 18 C42.33 16.35 42.66 14.7 43 13 C41.27773504 9.75150023 41.27773504 9.75150023 38 9 C35.12561452 8.84586124 32.27101014 8.74252715 29.39453125 8.68359375 C28.13572395 8.6524221 28.13572395 8.6524221 26.85148621 8.62062073 C24.17190706 8.55525982 21.49223031 8.49630286 18.8125 8.4375 C16.99543263 8.39430198 15.17837512 8.35068727 13.36132812 8.30664062 C8.90765201 8.1995922 4.45387774 8.09828681 0 8 C0 5.36 0 2.72 0 0 Z " fill="#101726" transform="translate(77,0)"/>
<path d="M0 0 C2.97 0 5.94 0 9 0 C9 4.62 9 9.24 9 14 C10.65 13.34 12.3 12.68 14 12 C19.0727924 11.44407755 22.85311686 12.90551803 27.375 15 C29.56125 15.99 31.7475 16.98 34 18 C34 25.26 34 32.52 34 40 C31.03 40 28.06 40 25 40 C24.67 35.05 24.34 30.1 24 25 C17.20857976 22.2834319 13.25941787 23.40153614 6.6875 26.0625 C5.84574219 26.42472656 5.00398438 26.78695313 4.13671875 27.16015625 C2 28 2 28 0 28 C0 18.76 0 9.52 0 0 Z " fill="#101726" transform="translate(62,0)"/>
<path d="M0 0 C1.02867188 -0.01417969 2.05734375 -0.02835938 3.1171875 -0.04296875 C6.17963488 0.19168631 8.35748861 0.89565428 11.125 2.1875 C10.41472656 2.71085937 9.70445313 3.23421875 8.97265625 3.7734375 C5.17474 6.99307021 2.24477208 10.7113954 -0.85742188 14.5859375 C-5.40226516 20.12873938 -5.40226516 20.12873938 -8.875 21.1875 C-11.70816046 21.25057593 -14.0597141 20.74132674 -16.875 20.1875 C-17.205 19.5275 -17.535 18.8675 -17.875 18.1875 C-18.865 19.1775 -19.855 20.1675 -20.875 21.1875 C-20.45292565 14.43431039 -18.09647895 9.45742224 -13.31640625 4.60546875 C-8.92557943 0.80592534 -5.6793728 0.03540756 0 0 Z M-13.875 12.1875 C-14.535 13.5075 -15.195 14.8275 -15.875 16.1875 C-14.555 14.8675 -13.235 13.5475 -11.875 12.1875 C-12.535 12.1875 -13.195 12.1875 -13.875 12.1875 Z " fill="#587532" transform="translate(47.875,16.8125)"/>
<path d="M0 0 C5.99485282 4.38647767 9.1989152 9.57008145 10.5625 16.875 C10.2325 17.865 9.9025 18.855 9.5625 19.875 C8.9025 18.885 8.2425 17.895 7.5625 16.875 C6.5725 17.535 5.5825 18.195 4.5625 18.875 C0.54271674 18.80055957 -1.73461139 18.41973868 -4.9375 15.9375 C-7.76195952 12.47753709 -10.29933692 8.88611156 -12.7890625 5.1796875 C-14.21657321 3.18387868 -15.64412864 1.53794435 -17.4375 -0.125 C-12.43005839 -2.62872081 -5.14655051 -1.68432562 0 0 Z M5.5625 13.875 C6.5625 15.875 6.5625 15.875 6.5625 15.875 Z " fill="#587532" transform="translate(17.4375,8.125)"/>
<path d="M0 0 C-0.29132812 0.5465625 -0.58265625 1.093125 -0.8828125 1.65625 C-2.52600437 5.10350568 -3.61926839 8.71776213 -4.8046875 12.34375 C-6.13115521 15.29145602 -7.50988559 16.95609106 -10 19 C-12.5625 19.125 -12.5625 19.125 -15 19 C-15.99 19.66 -16.98 20.32 -18 21 C-18.42375733 13.93737789 -17.66405537 9.55207383 -13.3125 3.75 C-9.37334434 0.76901734 -4.8780524 0 0 0 Z M-15 14 C-14 16 -14 16 -14 16 Z " fill="#587532" transform="translate(46,1)"/>
<path d="M0 0 C0 4.62 0 9.24 0 14 C-2.97 14 -5.94 14 -9 14 C-9 10.37 -9 6.74 -9 3 C-1.125 0 -1.125 0 0 0 Z " fill="#101726" transform="translate(71,26)"/>
</svg>
